Coordinates
version=1
nRows=8
nColumns=40
inDegrees=yes

Units are S.I. units (second, meters, Newtons, ...)
If the header above contains a line with 'inDegrees', this indicates whether rotational values are in degrees (yes) or radians (no).

endheader
time	pelvis_tilt	pelvis_list	pelvis_rotation	pelvis_tx	pelvis_ty	pelvis_tz	hip_flexion_r	hip_adduction_r	hip_rotation_r	knee_angle_r	knee_angle_r_beta	ankle_angle_r	subtalar_angle_r	mtp_angle_r	hip_flexion_l	hip_adduction_l	hip_rotation_l	knee_angle_l	knee_angle_l_beta	ankle_angle_l	subtalar_angle_l	mtp_angle_l	lumbar_extension	lumbar_bending	lumbar_rotation	arm_flex_r	arm_add_r	arm_rot_r	elbow_flex_r	pro_sup_r	wrist_flex_r	wrist_dev_r	arm_flex_l	arm_add_l	arm_rot_l	elbow_flex_l	pro_sup_l	wrist_flex_l	wrist_dev_l
      3.87500000	    -38.35939417	      5.52255414	     -4.59526573	     -0.41093547	      0.56364083	     -0.92970439	    109.20104297	    -16.42360313	      6.48170036	    102.39881186	      1.78719642	     34.76775602	      0.00000000	      0.00000000	    103.52168435	    -26.25220104	     -0.55269713	    103.71296494	      1.81013272	     37.84427722	      0.00000000	      0.00000000	    -17.13578878	     -7.71125331	     -7.30887082	     12.61121386	    -51.10689549	     75.46910985	     96.48434635	     87.78734381	      0.00000000	      0.00000000	    -25.68541379	    -45.63244123	     35.94533654	     90.40089868	     87.80798976	      0.00000000	      0.00000000
      3.88000000	    -38.31586972	      5.51351185	     -4.46957956	     -0.40857880	      0.57046599	     -0.93014972	    108.21614313	    -16.59384917	      6.26844339	    101.40605862	      1.76986960	     34.52494144	      0.00000000	      0.00000000	    102.44077221	    -25.94192448	     -1.02815680	    102.66312639	      1.79180958	     37.65602366	      0.00000000	      0.00000000	    -16.50944803	     -7.62747188	     -7.19233650	     12.57873955	    -50.95538060	     75.22044619	     96.12887172	     87.76772223	      0.00000000	      0.00000000	    -25.56815825	    -45.41472686	     35.79437223	     90.15404543	     87.79054070	      0.00000000	      0.00000000
      3.88500000	    -37.67943616	      5.37190077	     -4.54047225	     -0.40507806	      0.57806634	     -0.92992717	    106.49199807	    -16.69896896	      5.82909073	    100.52890915	      1.75456046	     34.56267326	      0.00000000	      0.00000000	    100.71075669	    -25.98584216	     -1.51330428	    101.71817315	      1.77531703	     37.74520099	      0.00000000	      0.00000000	    -16.50887023	     -7.52691254	     -7.01853404	     12.22387819	    -50.63255212	     74.55047635	     95.33948839	     87.75816979	      0.00000000	      0.00000000	    -25.58697019	    -45.00476698	     35.41538385	     89.51784004	     87.77522062	      0.00000000	      0.00000000
      3.89000000	    -37.56730436	      4.24176373	     -3.32881099	     -0.40259375	      0.58525646	     -0.93220391	    104.91848925	    -18.30403840	      4.65225908	     99.64499868	      1.73913331	     34.84597893	      0.00000000	      0.00000000	    100.11073625	    -24.34825884	     -0.87443880	    100.52053600	      1.75441432	     37.40744524	      0.00000000	      0.00000000	    -16.16304496	     -5.94608747	     -7.30278579	     10.84729229	    -50.93448714	     72.64364704	     95.20743079	     87.77354336	      0.00000000	      0.00000000	    -24.86962486	    -44.72292966	     35.77693711	     89.25599296	     87.79136815	      0.00000000	      0.00000000
      3.89500000	    -36.84566824	      4.54373471	     -4.16649085	     -0.39889177	      0.59305484	     -0.93049746	    103.21937512	    -17.41125418	      4.50107003	     98.62128875	      1.72126620	     34.66357934	      0.00000000	      0.00000000	     98.11763237	    -25.34150065	     -1.73446611	     99.62108935	      1.73871601	     37.29687830	      0.00000000	      0.00000000	    -16.05986978	     -6.53924066	     -6.59172421	     10.74690364	    -50.41458046	     72.28760079	     94.53454335	     87.74882387	      0.00000000	      0.00000000	    -24.98767081	    -44.57665996	     35.45800255	     88.84165510	     87.76540815	      0.00000000	      0.00000000
      3.90000000	    -36.11829797	      4.73718852	     -4.76281597	     -0.39511001	      0.60128905	     -0.92919504	    101.43947470	    -16.80054136	      4.32729550	     97.56373196	      1.70280835	     34.59298679	      0.00000000	      0.00000000	     96.06716943	    -26.04799652	     -2.64308712	     98.60355773	      1.72095674	     37.28986512	      0.00000000	      0.00000000	    -15.99525504	     -7.01059355	     -5.98106520	     10.46467252	    -49.96544968	     71.75252817	     93.87051386	     87.72868336	      0.00000000	      0.00000000	    -25.07991526	    -44.44027925	     35.07788641	     88.50153800	     87.75008417	      0.00000000	      0.00000000
      3.90500000	    -36.56167195	      3.80361082	     -3.55595479	     -0.39345247	      0.60790920	     -0.93143496	    100.51641154	    -18.11781624	      3.27508629	     96.45523054	      1.68346135	     34.48160685	      0.00000000	      0.00000000	     96.03707520	    -24.48003135	     -2.03131160	     97.26786221	      1.69764445	     36.95048040	      0.00000000	      0.00000000	    -14.89546043	     -5.55519541	     -6.72427798	     10.10560197	    -50.14293448	     71.07849117	     93.80131467	     87.73273820	      0.00000000	      0.00000000	    -25.11741668	    -43.95867849	     34.84483820	     88.18645123	     87.77342972	      0.00000000	      0.00000000
      3.91000000	    -35.20650527	      4.12396484	     -4.53220560	     -0.38824853	      0.61709258	     -0.92936679	     98.07411713	    -17.20229656	      3.16322457	     95.43484053	      1.66565219	     34.43185183	      0.00000000	      0.00000000	     93.14486374	    -25.69105087	     -3.22943241	     96.34514079	      1.68153993	     36.84938211	      0.00000000	      0.00000000	    -15.32284609	     -6.28801257	     -5.99984655	     10.01965499	    -49.48122884	     70.66508270	     92.89293175	     87.71346994	      0.00000000	      0.00000000	    -25.26948960	    -43.72449663	     34.45329883	     87.64146088	     87.75528717	      0.00000000	      0.00000000
